<svg width="60" height="20" viewBox="0 0 60 20" fill="none" xmlns="http://www.w3.org/2000/svg">
<path d="M20.3761 5.91315C21.6551 5.91321 22.7679 6.20216 23.714 6.78033C24.6601 7.34105 25.3963 8.09491 25.922 9.04108C26.4476 9.98721 26.7101 11.0302 26.7101 12.169C26.7101 12.3441 26.7012 12.537 26.6837 12.7471C26.6837 12.9398 26.6749 13.1591 26.6573 13.4044H16.5118C16.5995 14.6657 17.0114 15.6292 17.7472 16.295C18.5007 16.9433 19.3685 17.2676 20.3497 17.2676C21.138 17.2676 21.7949 17.0925 22.3204 16.7422C22.8635 16.3744 23.2666 15.8836 23.5294 15.2706L23.6007 15.2784L26.0363 15.6651L26.047 15.6661L26.0382 15.6973C25.6921 16.8431 25.2249 17.5531 24.213 18.3458C23.1793 19.1691 21.8914 19.5811 20.3497 19.5811C19.0706 19.5811 17.9315 19.3 16.9327 18.7393C15.9515 18.1611 15.18 17.364 14.6193 16.3477C14.0587 15.3315 13.7785 14.1489 13.7784 12.7999C13.7784 11.4331 14.0497 10.2321 14.5929 9.1983C15.1536 8.16452 15.9251 7.35856 16.9064 6.78033C17.9051 6.20217 19.062 5.91315 20.3761 5.91315ZM20.3517 8.06647C19.4231 8.06647 18.5993 8.34671 17.881 8.90729C17.1626 9.45045 16.7243 10.2742 16.5665 11.378H23.9259C23.8733 10.3619 23.5145 9.55572 22.8488 8.96002C22.183 8.36431 21.3503 8.06652 20.3517 8.06647Z" fill="white"/>
<path d="M48.7515 7.39354L52.0808 5.04189L49.2071 2.97103L50.1183 2.09355L53.0271 3.98891L52.957 0.163086L54.7443 0.443879V3.14653L56.812 1.67236L59.1601 3.60282L56.041 5.88427L59.1601 7.88493L58.0036 9.28891L54.7794 6.97235L54.8144 11.2896L53.2023 10.8684L53.1322 8.02533L51.2047 9.4293L48.7515 7.39354Z" fill="white"/>
<path fill-rule="evenodd" clip-rule="evenodd" d="M0.429688 0.335449V19.2598H3.21577V12.5311C3.21577 11.1644 3.55746 10.113 4.24083 9.37706C4.94173 8.64112 5.81786 8.27315 6.86921 8.27315C8.8843 8.27315 9.89184 9.53477 9.89184 12.058V19.2598H12.6516V11.7689C12.6516 9.82389 12.2048 8.36076 11.3112 7.3795C10.4175 6.39824 9.19094 5.90761 7.63144 5.90761C6.68522 5.90761 5.81786 6.12664 5.02935 6.5647C4.25836 6.98524 3.65383 7.57225 3.21577 8.32571V0.779898L0.429688 0.335449ZM28.1283 19.2598V6.22301H30.8618V8.69369C31.3173 7.83508 31.9482 7.16047 32.7542 6.66984C33.5778 6.16168 34.5678 5.90761 35.7243 5.90761V8.82511H34.962C34.191 8.82511 33.4989 8.95652 32.8856 9.21936C32.2899 9.46468 31.808 9.89398 31.44 10.5073C31.0896 11.103 30.9143 11.9354 30.9143 13.0042V19.2598H28.1283ZM38.8576 18.7341C39.8564 19.2948 40.9953 19.5752 42.2745 19.5752C43.8164 19.5752 45.1043 19.1634 46.1382 18.3398C47.1501 17.5472 47.6171 16.8379 47.9632 15.6921L47.9725 15.661L47.9617 15.6593L45.5254 15.2727L45.4548 15.2646C45.192 15.8779 44.7889 16.3685 44.2457 16.7365C43.7201 17.087 43.063 17.2622 42.2745 17.2622C41.2932 17.2622 40.4258 16.938 39.6724 16.2897C38.9364 15.6238 38.5246 14.6601 38.437 13.3985H48.5826C48.6001 13.1532 48.6088 12.9341 48.6088 12.7414C48.6264 12.5311 48.6351 12.3384 48.6351 12.1631C48.6351 11.0242 48.3723 9.98159 47.8466 9.03537C47.3209 8.08916 46.585 7.33569 45.6388 6.77497C44.6926 6.19673 43.5799 5.90761 42.3007 5.90761C40.9866 5.90761 39.8301 6.19673 38.8313 6.77497C37.85 7.35321 37.079 8.15925 36.5183 9.19308C35.9751 10.2269 35.7035 11.4272 35.7035 12.794C35.7035 14.1432 35.9839 15.326 36.5446 16.3423C37.1053 17.3586 37.8763 18.1558 38.8576 18.7341ZM39.8038 9.03537C40.5222 8.47465 41.3458 8.19429 42.2745 8.19429C43.2732 8.19429 44.1056 8.49218 44.7714 9.08794C45.4373 9.68371 45.7965 10.4897 45.8491 11.506H38.4896C38.6473 10.4021 39.0854 9.57857 39.8038 9.03537Z" fill="white"/>
</svg>
