<svg width="118" height="40" viewBox="0 0 118 40" fill="none" xmlns="http://www.w3.org/2000/svg">
<path d="M40.751 11.8262C43.3091 11.8262 45.5344 12.4042 47.4268 13.5605C49.3192 14.682 50.7914 16.1896 51.8428 18.082C52.8939 19.9743 53.4199 22.0592 53.4199 24.3369C53.4199 24.6872 53.4022 25.0728 53.3672 25.4932C53.3672 25.8786 53.3495 26.317 53.3145 26.8076H33.0234C33.1987 29.3307 34.0224 31.2582 35.4941 32.5898C37.001 33.8865 38.7358 34.5351 40.6982 34.5352C42.2752 34.5352 43.5893 34.1843 44.6406 33.4834C45.727 32.7475 46.5329 31.7665 47.0586 30.54L47.2002 30.5566L52.0732 31.3291L52.0947 31.333L52.0752 31.3945C51.383 33.686 50.4496 35.1051 48.4258 36.6904C46.3582 38.3375 43.7822 39.1611 40.6982 39.1611C38.14 39.1611 35.8618 38.5999 33.8643 37.4785C31.9021 36.3221 30.3606 34.7276 29.2393 32.6953C28.1178 30.6627 27.5566 28.2971 27.5566 25.5986C27.5567 22.8653 28.1002 20.465 29.1865 18.3975C30.3079 16.3298 31.85 14.717 33.8125 13.5605C35.8099 12.4042 38.1228 11.8262 40.751 11.8262ZM40.7021 16.1328C38.8449 16.1329 37.1975 16.6941 35.7607 17.8154C34.3243 18.9018 33.4482 20.5485 33.1328 22.7559H47.8516C47.7464 20.7235 47.0279 19.1114 45.6963 17.9199C44.3646 16.7285 42.6996 16.1328 40.7021 16.1328Z" fill="black"/>
<path d="M97.502 14.2193L103.899 9.7007L98.3774 5.72158L100.128 4.03552L105.717 7.67741L105.583 0.326172L109.017 0.86571V6.05879L112.99 3.2262L117.502 6.93555L111.509 11.3193L117.502 15.1635L115.28 17.8613L109.084 13.41L109.152 21.7055L106.054 20.8962L105.919 15.4333L102.216 18.131L97.502 14.2193Z" fill="black"/>
<path fill-rule="evenodd" clip-rule="evenodd" d="M0.859375 0.670898V38.5191H6.43147V25.062C6.43147 22.3285 7.11484 20.2258 8.48159 18.7539C9.88337 17.2821 11.6356 16.5461 13.7383 16.5461C17.7684 16.5461 19.7835 19.0693 19.7835 24.1158V38.5191H25.303V23.5375C25.303 19.6476 24.4094 16.7213 22.6221 14.7588C20.8348 12.7963 18.3817 11.8151 15.2627 11.8151C13.3703 11.8151 11.6356 12.2532 10.0586 13.1293C8.51663 13.9703 7.30759 15.1443 6.43147 16.6513V1.55979L0.859375 0.670898ZM56.2559 38.5191V12.4459H61.7229V17.3872C62.634 15.67 63.8957 14.3208 65.5077 13.3395C67.1548 12.3232 69.1348 11.8151 71.4478 11.8151V17.65H69.9233C68.3814 17.65 66.9971 17.9129 65.7705 18.4385C64.579 18.9292 63.6153 19.7878 62.8794 21.0143C62.1785 22.2058 61.828 23.8705 61.828 26.0082V38.5191H56.2559ZM77.7143 37.4678C79.7119 38.5892 81.9898 39.1499 84.548 39.1499C87.632 39.1499 90.2078 38.3264 92.2754 36.6793C94.2992 35.094 95.2331 33.6754 95.9253 31.3839L95.944 31.3217L95.9225 31.3183L91.0499 30.5451L90.9086 30.5289C90.383 31.7555 89.577 32.7368 88.4906 33.4727C87.4392 34.1736 86.125 34.524 84.548 34.524C82.5855 34.524 80.8508 33.8757 79.3439 32.5791C77.872 31.2474 77.0485 29.3199 76.8733 26.7967H97.1641C97.1992 26.3061 97.2167 25.868 97.2167 25.4825C97.2517 25.062 97.2692 24.6765 97.2692 24.326C97.2692 22.0481 96.7436 19.963 95.6922 18.0706C94.6409 16.1782 93.169 14.6712 91.2766 13.5498C89.3842 12.3933 87.1589 11.8151 84.6006 11.8151C81.9723 11.8151 79.6593 12.3933 77.6618 13.5498C75.6993 14.7063 74.1573 16.3183 73.0359 18.386C71.9495 20.4536 71.4063 22.8542 71.4063 25.5876C71.4063 28.2861 71.967 30.6516 73.0884 32.6842C74.2099 34.7168 75.7518 36.3113 77.7143 37.4678ZM79.6068 18.0706C81.0436 16.9491 82.6907 16.3884 84.548 16.3884C86.5456 16.3884 88.2102 16.9842 89.5419 18.1757C90.8736 19.3672 91.592 20.9793 91.6972 23.0119H76.9784C77.2938 20.8041 78.1699 19.1569 79.6068 18.0706Z" fill="black"/>
</svg>
