<svg xmlns="http://www.w3.org/2000/svg" width="160" height="160" viewBox="0 0 160 160">
  <path d="M 80,6 L 93.4,21.5 L 112.1,13.3 L 117.4,33.1 L 137.9,33.9 L 134.1,54 L 152.1,63.5 L 140,80 L 152.1,96.5 L 134.1,106 L 137.9,126.1 L 117.4,126.9 L 112.1,146.7 L 93.4,138.5 L 80,154 L 66.6,138.5 L 47.9,146.7 L 42.6,126.9 L 22.1,126.1 L 25.9,106 L 7.9,96.5 L 20,80 L 7.9,63.5 L 25.9,54 L 22.1,33.9 L 42.6,33.1 L 47.9,13.3 L 66.6,21.5 Z" fill="#6395df"/>
  <text x="80" y="74" text-anchor="middle" font-family="'Golos Text', Golos, sans-serif" font-size="22" fill="black">STAFF</text>
  <text x="80" y="98" text-anchor="middle" font-family="'Golos Text', Golos, sans-serif" font-size="22" fill="black">PICK</text>
</svg>
